<?xml version="1.0" standalone="no"?>
<!DOCTYPE svg PUBLIC "-//W3C//DTD SVG 20010904//EN"
 "http://www.w3.org/TR/2001/REC-SVG-20010904/DTD/svg10.dtd">
<svg version="1.0" xmlns="http://www.w3.org/2000/svg"
 width="300.000000pt" height="61.000000pt" viewBox="0 0 300.000000 61.000000"
 preserveAspectRatio="xMidYMid meet">
<metadata>
Created by potrace 1.10, written by Peter Selinger 2001-2011
</metadata>
<g transform="translate(0.000000,61.000000) scale(0.100000,-0.100000)"
fill="#000000" stroke="none">
<path d="M166 585 c-48 -17 -100 -67 -126 -120 -23 -47 -26 -128 -8 -172 11
-26 12 -22 19 51 5 63 12 86 36 119 37 54 84 80 142 81 96 1 161 -57 190 -169
19 -73 31 -75 31 -6 0 94 -66 184 -157 217 -48 17 -78 17 -127 -1z"/>
<path d="M1610 440 l0 -160 -40 0 c-71 0 -110 -30 -110 -84 0 -77 155 -85 189
-10 6 15 11 79 11 155 l0 131 33 -19 c24 -14 33 -27 35 -51 4 -40 16 -41 32
-3 16 40 6 64 -51 123 -27 27 -49 56 -49 64 0 8 -10 14 -25 14 l-25 0 0 -160z
m-32 -232 c3 -24 0 -28 -23 -28 -27 0 -41 20 -31 46 10 27 51 13 54 -18z"/>
<path d="M284 399 c-6 -11 3 -164 13 -206 3 -16 13 -23 28 -23 33 0 55 10 55
25 0 7 7 15 15 19 11 4 15 21 15 60 0 64 -13 106 -34 106 -7 0 -16 7 -20 15
-6 17 -61 21 -72 4z m74 -61 c15 -15 16 -94 1 -104 -17 -10 -26 7 -32 57 -7
58 4 74 31 47z"/>
<path d="M131 393 c-13 -3 -25 -13 -28 -23 -3 -10 -11 -21 -19 -24 -29 -11
-13 -145 18 -153 10 -3 18 -10 18 -17 0 -6 9 -17 20 -24 13 -8 20 -23 20 -45
0 -86 28 -103 96 -60 25 15 62 38 82 51 31 19 46 22 87 16 28 -3 145 -8 262
-10 169 -4 214 -8 223 -19 16 -19 44 -19 60 0 11 13 65 15 372 15 345 0 361
-1 385 -20 14 -11 32 -20 39 -20 8 0 14 -7 14 -15 0 -10 11 -15 35 -15 19 0
35 -4 35 -10 0 -6 40 -10 99 -10 79 0 100 3 105 15 3 8 12 15 21 15 20 0 20
46 -1 54 -9 3 -17 6 -18 6 -1 0 -1 -14 2 -30 3 -20 0 -30 -8 -30 -9 0 -11 12
-7 40 l5 40 -99 0 c-59 0 -99 -4 -99 -10 0 -5 -15 -10 -34 -10 -23 0 -36 -5
-38 -15 -2 -13 -10 -11 -40 10 l-37 25 -355 0 c-196 0 -356 1 -356 3 0 2 13
41 30 87 35 101 35 100 11 100 -15 0 -23 -14 -36 -65 -10 -36 -21 -65 -25 -65
-4 0 -15 29 -25 65 -16 54 -23 65 -41 65 l-21 0 27 -77 c15 -42 32 -79 39 -81
6 -2 11 -10 11 -17 0 -11 -45 -13 -247 -10 -137 3 -273 6 -303 7 -51 2 -61 -2
-127 -46 -43 -29 -79 -46 -88 -43 -19 8 -21 84 -2 112 11 16 12 39 3 120 -11
96 -19 127 -34 124 -4 -1 -18 -4 -31 -6z m26 -127 c6 -61 -4 -72 -31 -34 -19
27 -21 79 -4 96 18 18 29 0 35 -62z m1848 -201 c0 -11 -99 -20 -122 -11 -8 3
-11 11 -8 16 8 14 130 9 130 -5z"/>
<path d="M510 245 l0 -115 33 0 c43 0 99 17 109 32 13 21 9 60 -7 78 -14 15
-14 18 0 30 21 17 19 46 -5 70 -15 15 -33 20 -75 20 l-55 0 0 -115z m98 76
c25 -16 9 -46 -26 -49 -30 -3 -32 -1 -32 27 0 26 4 31 23 31 12 0 28 -4 35 -9z
m7 -121 c0 -21 -5 -26 -32 -28 -31 -3 -33 -1 -33 28 0 29 2 31 33 28 27 -2 32
-7 32 -28z"/>
<path d="M2070 245 l0 -115 39 0 c86 0 130 44 96 96 -12 19 -14 29 -6 37 17
17 13 62 -7 80 -12 11 -36 17 -70 17 l-52 0 0 -115z m100 70 c20 -24 4 -45
-33 -45 -29 0 -32 3 -31 28 1 15 3 28 3 30 3 9 51 -1 61 -13z m5 -115 c0 -21
-5 -25 -35 -28 -33 -3 -35 -1 -35 28 0 29 2 31 35 28 30 -3 35 -7 35 -28z"/>
<path d="M2680 330 c0 -13 -7 -20 -20 -20 -13 0 -20 -7 -20 -20 0 -13 7 -20
20 -20 17 0 20 -7 20 -51 0 -65 13 -89 48 -89 33 0 45 8 61 37 15 29 14 33 -7
33 -9 0 -23 -9 -30 -21 -20 -31 -42 -7 -42 47 l0 44 40 0 c33 0 40 3 40 20 0
17 -7 20 -41 20 -36 0 -41 2 -36 20 4 15 0 20 -14 20 -12 0 -19 -7 -19 -20z"/>
<path d="M720 283 c-29 -36 -23 -108 10 -135 29 -24 75 -23 100 2 38 38 22 52
-28 23 -25 -14 -32 -15 -46 -4 -33 27 -19 41 40 41 l57 0 -7 32 c-14 71 -84
93 -126 41z m78 -15 c20 -20 14 -28 -23 -28 -19 0 -35 4 -35 8 0 12 22 32 35
32 6 0 16 -5 23 -12z"/>
<path d="M1118 299 c-24 -13 -39 -72 -28 -110 27 -93 150 -69 150 29 0 73 -64
115 -122 81z m67 -33 c35 -25 15 -106 -26 -106 -35 0 -51 76 -23 104 19 19 25
20 49 2z"/>
<path d="M1290 217 c0 -78 2 -88 17 -85 14 2 16 13 15 58 -3 65 6 83 39 78 22
-3 24 -8 27 -70 3 -60 5 -68 22 -68 18 0 20 7 20 68 0 94 -14 112 -85 110
l-55 -2 0 -89z"/>
<path d="M2282 287 c-30 -31 -30 -104 -2 -135 28 -30 80 -29 108 1 12 13 22
26 22 30 0 13 -38 7 -50 -8 -16 -19 -35 -19 -54 1 -27 26 -18 34 39 34 54 0
55 0 55 30 0 63 -75 93 -118 47z m74 -21 c26 -19 14 -28 -32 -24 -36 3 -37 4
-20 21 21 21 27 21 52 3z"/>
<path d="M2465 285 c-30 -29 -32 -45 -5 -45 11 0 20 5 20 10 0 6 11 15 25 22
19 8 28 8 40 -2 22 -18 18 -30 -11 -30 -33 0 -61 -15 -74 -41 -25 -45 51 -94
88 -57 9 9 12 9 12 0 0 -7 7 -12 15 -12 24 0 21 141 -3 163 -28 25 -78 21
-107 -8z m95 -83 c0 -17 -37 -42 -54 -36 -21 8 -21 31 2 37 30 8 52 7 52 -1z"/>
<path d="M2860 290 c-31 -31 -25 -57 17 -79 12 -6 31 -11 42 -11 25 0 38 -20
20 -31 -20 -13 -36 -11 -53 6 -17 17 -46 20 -46 5 0 -41 92 -67 124 -34 36 35
4 94 -51 94 -27 0 -41 19 -22 31 21 13 34 11 59 -11 12 -11 27 -17 31 -14 29
17 -19 64 -66 64 -22 0 -43 -8 -55 -20z"/>
<path d="M1810 220 c0 -73 17 -98 22 -33 2 27 8 39 21 41 14 3 17 -4 17 -37 0
-29 4 -41 14 -41 11 0 13 9 10 38 -9 57 -12 62 -39 62 -18 0 -25 5 -25 20 0
11 -4 20 -10 20 -6 0 -10 -30 -10 -70z"/>
<path d="M1710 266 c0 -8 -6 -17 -12 -20 -10 -5 -10 -7 0 -12 6 -3 12 -21 12
-39 0 -39 24 -59 52 -44 19 10 25 39 8 39 -5 0 -10 -4 -10 -10 0 -5 -7 -10
-15 -10 -10 0 -15 10 -15 30 0 25 4 30 25 30 14 0 25 5 25 10 0 6 -11 10 -25
10 -16 0 -25 6 -25 15 0 8 -4 15 -10 15 -5 0 -10 -6 -10 -14z"/>
<path d="M1930 225 c-6 -16 -6 -34 0 -51 8 -21 15 -25 42 -22 17 2 33 9 36 15
2 9 -5 11 -27 7 -20 -4 -31 -2 -31 5 0 6 14 11 30 11 19 0 30 5 30 14 0 32
-13 46 -41 46 -22 0 -32 -6 -39 -25z m60 -5 c0 -5 -9 -10 -20 -10 -11 0 -20 5
-20 10 0 6 9 10 20 10 11 0 20 -4 20 -10z"/>
<path d="M2100 70 l0 -31 68 3 c61 3 67 5 70 26 2 12 0 22 -5 23 -96 6 -93 7
-94 -20 l-1 -26 -7 24 c-10 37 -31 38 -31 1z"/>
</g>
</svg>
